<?xml version="1.0" encoding="UTF-8"?>
<svg id="Capa_1" xmlns="http://www.w3.org/2000/svg" version="1.1" viewBox="0 0 630.45 779.04">
  <!-- Generator: Adobe Illustrator 30.3.0, SVG Export Plug-In . SVG Version: 2.1.3 Build 182)  -->
  <path d="M196.06,168.07c-.2,1.63-.81,3.21-1.77,4.55C54.33,368.64-61.74,339.21,55.14,368.85c137.38,34.84,119.44,46.26,116.6,49.11-50.72,50.93-87.82,38.55-70.15,51.35,12.5,9.05,33.14,21.57,45.21,31.11,5.54,4.37,4.95,12.78-1.14,16.38-11.49,6.8-22.64,13.51-31.42,19.59-6.42,4.45-5.52,14.01,1.61,17.27,11.72,5.35,28.48,7.82,34.11,11.37,9.7,6.12,12.36,35.47.07,53.28l-42.02,15.32c-3.94,1.44-6.61,5.08-6.68,9.19-.36,22.71,4.71,40.21,25.12,42.95.46.06.94.09,1.41.09h54.17s123.46,0,123.46,0h27.45c5.67,0,10.27,4.49,10.27,10.03v73.12c0,5.54,4.6,10.03,10.27,10.03h266.69c5.67,0,10.27-4.49,10.27-10.03V10.03c0-5.59-4.67-10.09-10.39-10.03H0C205.41,0,216.94-1.5,196.06,168.07Z"/>
</svg>